<?xml version="1.0" encoding="UTF-8"?>
<svg xmlns="http://www.w3.org/2000/svg" version="1.1" viewBox="0 0 152 138">
  <defs>
    <style>
      .cls-1 {
        fill: #fff;
      }

      .cls-1, .cls-2 {
        fill-rule: evenodd;
      }
    </style>
  </defs>
  <!-- Generator: Adobe Illustrator 28.6.0, SVG Export Plug-In . SVG Version: 1.2.0 Build 709)  -->
  <g>
    <g id="Layer_1">
      <path class="cls-2" d="M63.5,73.3c-1.6,0-3.2-.2-4.8-.2-.2,2-.9,4.3-2.2,5.3-.5,0-1-.2-1.4-.2,0-.2-.2-.5-.2-.7,0-.2-.2-.5-.2-.7,0-4,3.1-5.7.5-9.1-.6-.8-1.3-1-2.2-.2-2,4.8,1.8,16.6,3.1,19.7,6-2.5,12.4-4.8,16.8-8.9-.2-.2-.3-.5-.5-.7-1-.4-1.9-1-2.4-1.9.2-1.8.3-3.5.5-5.3-1.9-.8-3.8-1.6-5.8-2.4,0-1.3.2-1.4.7-2.2h.2c3.3,0,5.8,1.5,7.7,2.9,0,1.6-.5,5.1.2,6,.6.5,1.3,1,1.9,1.4,2.9-2.3,8.3-11.6,13.4-9.8.6.4.6.7,1,1.2v.2c-1.5,1.8-3.3,1.5-5.3,2.9-1.3,1.7-2.6,3.4-3.8,5-4.9,5.1-11.7,10.4-19.2,12.7v.2c12.1,0,17.7-4.7,22.1-12.2,1-1.8,1.1-4.2,2.6-5.5h1c.3.4.6.8,1,1.2-.4,3.7-2.6,6.2-4.3,8.6-2.5,3.4-5.5,7.1-9.6,8.9-12.6,5.3-37.6.8-49.7-1.9,5.2,37,79,33,64.3-15.1.3-.5.6-1,1-1.4,1.3,0,1.4.2,2.2.7.2,1.7.5,3.4.7,5h5.5c0,.2.2.5.2.7.4,1.1,0,1.4-.5,2.2-1.6,0-3.2.2-4.8.2.4,3.8,3.2,6.4,4.6,10.1-.2.5-.5,1-.7,1.4-1.2,0-1.2,0-2.2-.5-.4-1.3-.8-2.6-1.2-3.8h-.2c-.4,2.3-.8,4.6-1.2,7,1.6,0,3.5,0,4.8.5.2,1.4,0,1.7-.5,2.6-1.9,0-3.8.2-5.8.2-.3.6-.6,1.3-1,1.9,0,.2.2.3.2.5,2.5.7,4.2,1.9,5,4.3,1.5-.5,3-1,4.6-1.4.2-2,.3-4,.5-6,.6-.2,1.1-.3,1.7-.5.3.2.6.5,1,.7.2,1.4.3,2.7.5,4.1,4.1-2,7.5-5.1,9.6-9.1-1.1-1.1-2.1-1.3-2.9-2.9.4-.5.8-1,1.2-1.4,1.6.2,2,.9,3.4,1.4,1-3,1.9-5.9,2.9-8.9h-4.1c0,1.7-.2,3.1-1.2,3.8-.2.2-.5.3-.7.5-.4-.2-.8-.5-1.2-.7,0-1.6.2-3.2.2-4.8-.6-1.9-2.6-2.5-3.1-4.8.2-.4.5-.8.7-1.2.6,0,1.3.2,1.9.2,1,1.4,1.9,2.7,2.9,4.1,1.7,0,3.4-.2,5-.2,0-5.3.4-12.5-2.2-16.1-1.4.9-2.7,1.8-4.1,2.6,0,1.7,0,3.7.7,4.6,1.3,1,2.3,1.3,3.1,2.9-.2.4-.5.8-.7,1.2-.5,0-1,.2-1.4.2-1.4-1-2.7-1.9-4.1-2.9-.6-1.1-.5-3.4-.5-5.3-1,0-1.9-.2-2.9-.2-.3-.2-.6-.5-1-.7,0-.6.2-1.3.2-1.9,1.1-.4,3.3,0,4.8-.5,1.6-1,3.2-2.1,4.8-3.1-.6-3.3-3.2-7.9-5.5-9.8-.5,0-1,.2-1.4.2.2,2.9.4,5.2-2.2,5.5-.4-.5-.8-1-1.2-1.4v-3.4c-.9.3-1.2.4-2.2.2-.2-.3-.5-.6-.7-1,0-.5.2-1,.2-1.4,1.7-.5,3.4-1,5-1.4-4.1-5.4-10.1-6.6-18.2-8.2,0-.6-.2-1.1-.2-1.7,3-5.3,18.8,5.6,20.2,7,12.8,12.7,18.6,44.5,1.9,57.8-6.3,5-14.4,7.9-24,9.6-1.8,0-3.7-.2-5.5-.2-2.6.5-6,3.2-8.9,4.1-10,3.1-27.5,3.6-36.7-.2-8.3-3.5-14.4-9.6-14.4-21.4s.3-6.2,1.4-8.2h.2c10.3.5,19.3,4.5,31,3.8v-.2c-10.3-24.8,4.7-53.9,30-53.8.3-1.9.6-3.8,1-5.8-3.4.1-9.3-.5-10.6-2.6-.4-1,0-1.4.5-2.2,2.5.6,5,1.1,7.4,1.7,7.4,1.3,13.6-1.7,18.2-3.6.5.4,1,.8,1.4,1.2,0,.3-.2.6-.2,1-1.6,2.9-9.7,4.3-13.9,4.6-.2,3-.4,8.8-1.7,11.3-1.9,0-2.2-.5-2.4-2.2-4.8,0-7.6,1.1-11,2.2.2,1.8.3,3.7.5,5.5,1.7.8,2.9,1.7,4.1,2.9-.2,2.7-2.8,6.3-4.1,8.4-1.3,0-1.4-.2-2.2-.7,0-3.1,1.7-4.7,2.6-7-1.9-.6-5-.7-6.7-1.7,0-.2-.2-.3-.2-.5,0-.2.2-.5.2-.7.7-1.3,1.6-1.3,3.1-1.7-.2-.9-.3-1.8-.5-2.6-.2.2-.3.3-.5.5-1.8,1.3-3.5,2.6-5.3,3.8.3.3.6.6,1,1,1.3,2.8,2,10,.2,13.4-1.4,0-1.6-.2-2.4-.7-.2-1.3-.3-2.6-.5-3.8h-5.5c-.9,2.8-1.8,5.6-2.6,8.4h1.2c.2-.2.5-.3.7-.5.7-1.7,1.9-2.9,3.1-4.1h.2c1.9,1.3,3.7,2.7,5,4.6-.2.6-.5,1.3-.7,1.9-.2,0-.5.2-.7.2-1.1-.9-2.2-1.8-3.4-2.6-.5.6-1,1.1-1.4,1.7.6,1.7,1.1,3.4,1.7,5,2,.2,5.1,0,6.5,1,1,3.5.8,7.1-1,9.6-1.3,0-1.4-.2-2.2-.7.6-2.4,1.2-3.8,1.2-6.6Z"/>
      <path class="cls-2" d="M77.4,39.7c1.5.5,5,2.9,5.5,4.3.6,1.7-.7,2.7,0,3.6,2.2,1.1,5.7,3.9,5,6.7-.3.9,0,.5-.7,1-1.1.4-1.4,0-2.2-.5-.6-2-1.5-3.5-3.4-4.3,0,.2-.2.3-.2.5-.5.9-1,1.8-1.4,2.6-1.3,0-1.4-.2-2.2-.7,0-.2-.2-.5-.2-.7.7-2.2,1.4-4.5,2.2-6.7-1.6-1.8-5.5-3.5-2.4-5.8Z"/>
      <path class="cls-2" d="M90.8,40.6c.6.2,1.3.5,1.9.7,0,1.6-.4,1.7-.7,2.9.2.2.5.3.7.5,2.2-.9,4.3-1.8,6.5-2.6.3.2.6.5,1,.7,0,1.8-.5,1.9-1.2,2.9-1.4.6-2.9,1.1-4.3,1.7,0,1.3,0,1.5-.7,2.4-1.5,0-1.5-.4-2.4-1-.8-1.3-1.6-2.6-2.4-3.8-1.6.4-2.3.5-3.6-.2,0-.6.2-1.3.2-1.9,1.7-.8,3.4-1.5,5-2.3Z"/>
      <path class="cls-1" d="M60.6,48.1c-.9,1.4-1.8,2.7-2.6,4.1v.2h4.1v-.7c0-.7.2-1.4.2-2.2-.6-.5-1.1-.9-1.7-1.4Z"/>
      <path class="cls-2" d="M97.6,50.7c.6.2,1.1.5,1.7.7.8,2.2,1.6,4.3,2.4,6.5,1.5-.9,3-1.8,4.6-2.6.4.2.8.5,1.2.7,0,.5.2,1,.2,1.4-2.4,2.3-8.7,4.4-6.2,7.9,1,.3,1.7.6,2.2,1.4,0,.3.2.6.2,1l-1.2,1.2c-1.5-.2-2.1-.8-3.1-1.4,0,2.2-.3,4.4-1.2,5.8-1.3,0-1.4-.2-2.2-.7.2-3.2.3-6.4.5-9.6.7-.7,1.4-1.4,2.2-2.2,1.1-3.9-3.6-6.5-1.7-9.8,0-.1.2-.2.4-.3Z"/>
      <path class="cls-2" d="M92,53.8c1.2.4,1.4.7,1.9,1.7-1,1.7-2.1,3.4-3.1,5,.8,1.3,1.6,2.2,1.9,4.1-.6.4-1.1.8-1.7,1.2-1.2-1-2-2-2.6-3.6-2.2,0-5.1.2-6.5-.5-.2-1.2,0-1.5.5-2.4,1.9,0,3.8-.2,5.8-.2,1.3-1.7,2.6-3.5,3.8-5.3Z"/>
      <path class="cls-2" d="M67.6,56.7c2.4.2,3.4,1.8,5,2.9,1.9-.9,6.6-3.4,5.8,1-1.4.6-2.7,1.1-4.1,1.7.6,3.3,5.3,1.6,6.7,4.3-.4.5-.8,1-1.2,1.4-2.4-.5-4.8-1-7.2-1.4-1.1-4-3-5.4-5.8-7.7,0-1.4.2-1.5.8-2.2Z"/>
      <path class="cls-2" d="M101.9,71.8c.6.2,1.3.5,1.9.7.8,2.2,1.6,4.3,2.4,6.5-1.4,1.8-2.9,3.8-5,4.8-.5-.3-1-.6-1.4-1v-1.4l3.1-3.1c-.9-1.8-2-3.8-1.7-6,.2-.1.4-.3.7-.5Z"/>
      <path class="cls-2" d="M106.2,82.9c.6.3,1.1.6,1.7,1-.2,1.8-.5,3.7-.7,5.5.5,2,1.6,3.1,1,5.8-.2,0-.3.2-.5.2-1.3,0-1.4-.2-2.2-.7,0-1.3,0-2.2-.5-2.9-.5-.5,0-.2-1-.5-1.1.4-3.2,1.1-4.3.7-.4-.2-.8-.5-1.2-.7,0-1.3.2-1.4.7-2.2,1.6-.3,3.2-.6,4.8-1,.6-2,.7-4,2.2-5.2Z"/>
      <path class="cls-2" d="M24.4,96.3c1.6,8.2,7.1,13.2,14.9,15.1-2.8-2.2-6.3-3.6-8.6-6.2-2.6-2.7-4.1-5.9-6.3-8.9Z"/>
      <path class="cls-1" d="M88,102.6c-1,1.3-1.9,2.6-2.9,3.8,3,.2,7.4-.5,6.2-2.6l-3.3-1.2Z"/>
    </g>
  </g>
</svg>