<?xml version="1.0" encoding="utf-8"?>
<!-- Generator: Adobe Illustrator 27.6.1, SVG Export Plug-In . SVG Version: 6.00 Build 0)  -->
<svg version="1.1" id="Layer_1" xmlns="http://www.w3.org/2000/svg" xmlns:xlink="http://www.w3.org/1999/xlink" x="0px" y="0px"
	 viewBox="0 0 152 138" style="enable-background:new 0 0 152 138;" xml:space="preserve">
<style type="text/css">
	.st0{fill-rule:evenodd;clip-rule:evenodd;}
</style>
<path class="st0" d="M63.5,73.3c-1.6-0.1-3.2-0.2-4.8-0.2c-0.2,2-0.9,4.3-2.2,5.3c-0.5-0.1-1-0.2-1.4-0.2c-0.1-0.2-0.2-0.5-0.2-0.7
	c-0.1-0.2-0.2-0.5-0.2-0.7c-0.1-4,3.1-5.7,0.5-9.1c-0.6-0.8-1.3-1-2.2-0.2c-2,4.8,1.8,16.6,3.1,19.7c6-2.5,12.4-4.8,16.8-8.9
	c-0.2-0.2-0.3-0.5-0.5-0.7c-1-0.4-1.9-1-2.4-1.9c0.2-1.8,0.3-3.5,0.5-5.3c-1.9-0.8-3.8-1.6-5.8-2.4c0.1-1.3,0.2-1.4,0.7-2.2
	c0.1,0,0.2,0,0.2,0c3.3,0,5.8,1.5,7.7,2.9c0.1,1.6-0.5,5.1,0.2,6c0.6,0.5,1.3,1,1.9,1.4c2.9-2.3,8.3-11.6,13.4-9.8
	c0.6,0.4,0.6,0.7,1,1.2c0,0.1,0,0.2,0,0.2c-1.5,1.8-3.3,1.5-5.3,2.9c-1.3,1.7-2.6,3.4-3.8,5C75.8,80.7,69,86,61.5,88.3
	c0,0.1,0,0.2,0,0.2c12.1,0.1,17.7-4.7,22.1-12.2c1-1.8,1.1-4.2,2.6-5.5c0.3,0,0.6,0,1,0c0.3,0.4,0.6,0.8,1,1.2
	c-0.4,3.7-2.6,6.2-4.3,8.6c-2.5,3.4-5.5,7.1-9.6,8.9c-12.6,5.3-37.6,0.8-49.7-1.9c5.2,37,79,33,64.3-15.1c0.3-0.5,0.6-1,1-1.4
	c1.3,0.1,1.4,0.2,2.2,0.7c0.2,1.7,0.5,3.4,0.7,5c1.8,0,3.7,0,5.5,0c0.1,0.2,0.2,0.5,0.2,0.7c0.4,1.1,0,1.4-0.5,2.2
	c-1.6,0.1-3.2,0.2-4.8,0.2c0.4,3.8,3.2,6.4,4.6,10.1c-0.2,0.5-0.5,1-0.7,1.4c-1.2,0.1-1.2,0-2.2-0.5c-0.4-1.3-0.8-2.6-1.2-3.8
	c-0.1,0-0.2,0-0.2,0c-0.4,2.3-0.8,4.6-1.2,7c1.6,0.1,3.5-0.1,4.8,0.5c0.2,1.4,0.1,1.7-0.5,2.6c-1.9,0.1-3.8,0.2-5.8,0.2
	c-0.3,0.6-0.6,1.3-1,1.9c0.1,0.2,0.2,0.3,0.2,0.5c2.5,0.7,4.2,1.9,5,4.3c1.5-0.5,3-1,4.6-1.4c0.2-2,0.3-4,0.5-6
	c0.6-0.2,1.1-0.3,1.7-0.5c0.3,0.2,0.6,0.5,1,0.7c0.2,1.4,0.3,2.7,0.5,4.1c4.1-2,7.5-5.1,9.6-9.1c-1.1-1.1-2.1-1.3-2.9-2.9
	c0.4-0.5,0.8-1,1.2-1.4c1.6,0.2,2,0.9,3.4,1.4c1-3,1.9-5.9,2.9-8.9c-1.4,0-2.7,0-4.1,0c0,1.7-0.2,3.1-1.2,3.8
	c-0.2,0.2-0.5,0.3-0.7,0.5c-0.4-0.2-0.8-0.5-1.2-0.7c0.1-1.6,0.2-3.2,0.2-4.8c-0.6-1.9-2.6-2.5-3.1-4.8c0.2-0.4,0.5-0.8,0.7-1.2
	c0.6,0.1,1.3,0.2,1.9,0.2c1,1.4,1.9,2.7,2.9,4.1c1.7-0.1,3.4-0.2,5-0.2c0.1-5.3,0.4-12.5-2.2-16.1c-1.4,0.9-2.7,1.8-4.1,2.6
	c-0.1,1.7-0.1,3.7,0.7,4.6c1.3,1,2.3,1.3,3.1,2.9c-0.2,0.4-0.5,0.8-0.7,1.2c-0.5,0.1-1,0.2-1.4,0.2c-1.4-1-2.7-1.9-4.1-2.9
	c-0.6-1.1-0.5-3.4-0.5-5.3c-1-0.1-1.9-0.2-2.9-0.2c-0.3-0.2-0.6-0.5-1-0.7c0.1-0.6,0.2-1.3,0.2-1.9c1.1-0.4,3.3,0.1,4.8-0.5
	c1.6-1,3.2-2.1,4.8-3.1c-0.6-3.3-3.2-7.9-5.5-9.8c-0.5,0.1-1,0.2-1.4,0.2c0.2,2.9,0.4,5.2-2.2,5.5c-0.4-0.5-0.8-1-1.2-1.4
	c0-1.1,0-2.2,0-3.4c-0.9,0.3-1.2,0.4-2.2,0.2c-0.2-0.3-0.5-0.6-0.7-1c0.1-0.5,0.2-1,0.2-1.4c1.7-0.5,3.4-1,5-1.4
	c-4.1-5.4-10.1-6.6-18.2-8.2c-0.1-0.6-0.2-1.1-0.2-1.7c3-5.3,18.8,5.6,20.2,7c12.8,12.7,18.6,44.5,1.9,57.8c-6.3,5-14.4,7.9-24,9.6
	c-1.8-0.1-3.7-0.2-5.5-0.2c-2.6,0.5-6,3.2-8.9,4.1c-10,3.1-27.5,3.6-36.7-0.2c-8.3-3.5-14.4-9.6-14.4-21.4c0-3.1,0.3-6.2,1.4-8.2
	c0.1,0,0.2,0,0.2,0c10.3,0.5,19.3,4.5,31,3.8c0-0.1,0-0.2,0-0.2c-10.3-24.8,4.7-53.9,30-53.8c0.3-1.9,0.6-3.8,1-5.8
	c-3.4,0.1-9.3-0.5-10.6-2.6c-0.4-1,0-1.4,0.5-2.2c2.5,0.6,5,1.1,7.4,1.7c7.4,1.3,13.6-1.7,18.2-3.6c0.5,0.4,1,0.8,1.4,1.2
	c-0.1,0.3-0.2,0.6-0.2,1c-1.6,2.9-9.7,4.3-13.9,4.6c-0.2,3-0.4,8.8-1.7,11.3c-1.9,0-2.2-0.5-2.4-2.2c-4.8-0.1-7.6,1.1-11,2.2
	c0.2,1.8,0.3,3.7,0.5,5.5c1.7,0.8,2.9,1.7,4.1,2.9c-0.2,2.7-2.8,6.3-4.1,8.4c-1.3-0.1-1.4-0.2-2.2-0.7c0.1-3.1,1.7-4.7,2.6-7
	c-1.9-0.6-5-0.7-6.7-1.7c-0.1-0.2-0.2-0.3-0.2-0.5c0.1-0.2,0.2-0.5,0.2-0.7c0.7-1.3,1.6-1.3,3.1-1.7c-0.2-0.9-0.3-1.8-0.5-2.6
	c-0.2,0.2-0.3,0.3-0.5,0.5c-1.8,1.3-3.5,2.6-5.3,3.8c0.3,0.3,0.6,0.6,1,1c1.3,2.8,2,10,0.2,13.4c-1.4,0-1.6-0.2-2.4-0.7
	c-0.2-1.3-0.3-2.6-0.5-3.8c-1.8,0-3.7,0-5.5,0c-0.9,2.8-1.8,5.6-2.6,8.4c0.4,0,0.8,0,1.2,0c0.2-0.2,0.5-0.3,0.7-0.5
	c0.7-1.7,1.9-2.9,3.1-4.1c0.1,0,0.2,0,0.2,0c1.9,1.3,3.7,2.7,5,4.6c-0.2,0.6-0.5,1.3-0.7,1.9c-0.2,0.1-0.5,0.2-0.7,0.2
	c-1.1-0.9-2.2-1.8-3.4-2.6c-0.5,0.6-1,1.1-1.4,1.7c0.6,1.7,1.1,3.4,1.7,5c2,0.2,5.1,0.1,6.5,1c1,3.5,0.8,7.1-1,9.6
	c-1.3-0.1-1.4-0.2-2.2-0.7C62.9,77.5,63.5,76.1,63.5,73.3z"/>
<path class="st0" d="M77.4,39.7c1.5,0.5,5,2.9,5.5,4.3c0.6,1.7-0.7,2.7,0,3.6c2.2,1.1,5.7,3.9,5,6.7c-0.3,0.9,0,0.5-0.7,1
	c-1.1,0.4-1.4,0-2.2-0.5c-0.6-2-1.5-3.5-3.4-4.3c-0.1,0.2-0.2,0.3-0.2,0.5c-0.5,0.9-1,1.8-1.4,2.6c-1.3-0.1-1.4-0.2-2.2-0.7
	c-0.1-0.2-0.2-0.5-0.2-0.7c0.7-2.2,1.4-4.5,2.2-6.7C78.2,43.7,74.3,42,77.4,39.7z"/>
<path class="st0" d="M90.8,40.6c0.6,0.2,1.3,0.5,1.9,0.7c-0.1,1.6-0.4,1.7-0.7,2.9c0.2,0.2,0.5,0.3,0.7,0.5c2.2-0.9,4.3-1.8,6.5-2.6
	c0.3,0.2,0.6,0.5,1,0.7c-0.1,1.8-0.5,1.9-1.2,2.9c-1.4,0.6-2.9,1.1-4.3,1.7c0.1,1.3,0,1.5-0.7,2.4c-1.5-0.1-1.5-0.4-2.4-1
	c-0.8-1.3-1.6-2.6-2.4-3.8c-1.6,0.4-2.3,0.5-3.6-0.2c0.1-0.6,0.2-1.3,0.2-1.9C87.5,42.1,89.2,41.4,90.8,40.6z"/>
<path class="st0" d="M60.6,48.1c-0.9,1.4-1.8,2.7-2.6,4.1c0,0.1,0,0.2,0,0.2c1.4,0,2.7,0,4.1,0c0-0.2,0-0.5,0-0.7
	c0.1-0.7,0.2-1.4,0.2-2.2C61.7,49,61.2,48.6,60.6,48.1z"/>
<path class="st0" d="M97.6,50.7c0.6,0.2,1.1,0.5,1.7,0.7c0.8,2.2,1.6,4.3,2.4,6.5c1.5-0.9,3-1.8,4.6-2.6c0.4,0.2,0.8,0.5,1.2,0.7
	c0.1,0.5,0.2,1,0.2,1.4c-2.4,2.3-8.7,4.4-6.2,7.9c1,0.3,1.7,0.6,2.2,1.4c0.1,0.3,0.2,0.6,0.2,1c-0.4,0.4-0.8,0.8-1.2,1.2
	c-1.5-0.2-2.1-0.8-3.1-1.4c-0.1,2.2-0.3,4.4-1.2,5.8c-1.3-0.1-1.4-0.2-2.2-0.7c0.2-3.2,0.3-6.4,0.5-9.6c0.7-0.7,1.4-1.4,2.2-2.2
	c1.1-3.9-3.6-6.5-1.7-9.8C97.2,50.9,97.4,50.8,97.6,50.7z"/>
<path class="st0" d="M92,53.8c1.2,0.4,1.4,0.7,1.9,1.7c-1,1.7-2.1,3.4-3.1,5c0.8,1.3,1.6,2.2,1.9,4.1c-0.6,0.4-1.1,0.8-1.7,1.2
	c-1.2-1-2-2-2.6-3.6c-2.2,0.1-5.1,0.2-6.5-0.5c-0.2-1.2-0.1-1.5,0.5-2.4c1.9-0.1,3.8-0.2,5.8-0.2C89.5,57.4,90.8,55.6,92,53.8z"/>
<path class="st0" d="M67.6,56.7c2.4,0.2,3.4,1.8,5,2.9c1.9-0.9,6.6-3.4,5.8,1c-1.4,0.6-2.7,1.1-4.1,1.7c0.6,3.3,5.3,1.6,6.7,4.3
	c-0.4,0.5-0.8,1-1.2,1.4c-2.4-0.5-4.8-1-7.2-1.4c-1.1-4-3-5.4-5.8-7.7C66.9,57.5,67,57.4,67.6,56.7z"/>
<path class="st0" d="M101.9,71.8c0.6,0.2,1.3,0.5,1.9,0.7c0.8,2.2,1.6,4.3,2.4,6.5c-1.4,1.8-2.9,3.8-5,4.8c-0.5-0.3-1-0.6-1.4-1
	c0-0.5,0-1,0-1.4c1-1,2.1-2.1,3.1-3.1c-0.9-1.8-2-3.8-1.7-6C101.4,72.2,101.6,72,101.9,71.8z"/>
<path class="st0" d="M106.2,82.9c0.6,0.3,1.1,0.6,1.7,1c-0.2,1.8-0.5,3.7-0.7,5.5c0.5,2,1.6,3.1,1,5.8c-0.2,0.1-0.3,0.2-0.5,0.2
	c-1.3-0.1-1.4-0.2-2.2-0.7c0-1.3,0-2.2-0.5-2.9c-0.5-0.5-0.1-0.2-1-0.5c-1.1,0.4-3.2,1.1-4.3,0.7c-0.4-0.2-0.8-0.5-1.2-0.7
	c0.1-1.3,0.2-1.4,0.7-2.2c1.6-0.3,3.2-0.6,4.8-1C104.6,86.1,104.7,84.1,106.2,82.9z"/>
<path class="st0" d="M24.4,96.3c1.6,8.2,7.1,13.2,14.9,15.1c-2.8-2.2-6.3-3.6-8.6-6.2C28.1,102.5,26.6,99.3,24.4,96.3z"/>
<path class="st0" d="M88,102.6c-1,1.3-1.9,2.6-2.9,3.8c3,0.2,7.4-0.5,6.2-2.6C90.2,103.4,89.1,103,88,102.6z"/>
</svg>
